<svg id="favicon" width="16" height="28" viewBox="0 0 16 28" fill="none" xmlns="http://www.w3.org/2000/svg">
    <path d="M8.05261 0.00187373C8.20171 0.00882615 8.35163 0.0374205 8.46374 0.121991C8.775 0.356882 8.84635 1.46574 8.88562 2.07414C8.89272 2.18185 8.8982 2.27395 8.90417 2.34269C9.27251 2.28077 9.68638 2.28761 10.0673 2.29387L10.1776 2.29582C10.4067 2.56921 10.4192 2.79405 10.4374 3.1132L10.4423 3.1923C10.712 3.25494 11.1891 3.24467 11.6932 3.2343C12.4443 3.21887 13.255 3.20271 13.5311 3.42277C13.6765 3.53899 13.7734 3.72778 13.8124 3.90422C13.8932 4.27046 13.9318 4.66241 13.9696 5.04387C13.9801 5.14842 13.9907 5.25218 14.0018 5.35441C14.0761 6.05969 14.1552 6.76447 14.2391 7.46867L15.1786 15.2226L15.2274 15.2177C15.4167 15.1987 15.5799 15.1821 15.7479 15.2958C15.8091 15.3373 15.8567 15.3898 15.8934 15.4482C15.9451 15.5305 15.9754 15.6262 15.9882 15.7255C16.0234 16.0029 15.9844 16.3529 15.7987 16.5761C15.7347 16.6526 15.659 16.7096 15.5614 16.7392C15.2392 16.8364 14.8189 16.7978 14.4803 16.8134C14.2667 16.823 14.0522 16.8362 13.8387 16.8534C13.7088 16.8639 13.5787 16.8753 13.4491 16.8886C13.764 18.0569 14.0315 19.2398 14.2987 20.4218C14.4509 21.0946 14.6028 21.768 14.7635 22.4374C14.9644 23.2418 15.1593 24.0475 15.3485 24.8544C15.4598 25.3125 15.6009 25.7807 15.6698 26.246C15.69 26.3826 15.6961 26.4716 15.6171 26.5937C15.5203 26.7432 15.3449 26.8337 15.1708 26.8681C14.9054 26.9205 14.7056 26.8482 14.4911 26.704C14.3542 26.6121 14.2753 26.5231 14.2167 26.371C14.0415 25.9161 14.0011 25.3905 13.8944 24.9169C13.594 23.6356 13.3125 22.3499 13.0516 21.0605C11.7824 21.1608 10.5119 21.2435 9.24011 21.3075C9.01993 21.3198 8.79903 21.3331 8.578 21.3466C7.89549 21.3884 7.21054 21.4308 6.52917 21.4355C6.52856 21.892 6.46214 22.3537 6.42175 22.8085C6.40298 23.0195 6.38812 23.231 6.3739 23.4423C6.35797 23.6804 6.34168 23.9186 6.31921 24.1562C6.30043 24.354 6.27479 24.5517 6.2489 24.7489C6.22871 24.9015 6.20903 25.0542 6.19226 25.207C6.12739 25.7989 6.12006 26.398 6.03015 26.9882C6.0145 27.0906 5.99241 27.2014 5.94128 27.2929C5.85022 27.4563 5.70064 27.5259 5.52624 27.581C5.40611 27.5853 5.28322 27.5803 5.16394 27.5595C5.115 27.5509 5.06595 27.5398 5.01843 27.5253C4.79242 27.4563 4.67973 27.3432 4.56823 27.1454C4.5569 26.5999 4.6169 26.0626 4.67663 25.5234C4.69626 25.345 4.71592 25.1664 4.73327 24.9872C4.77425 24.5178 4.81669 24.0482 4.86023 23.579C4.91826 22.9517 4.9783 22.3242 5.04089 21.6972L5.31433 18.5898C5.33396 18.3657 5.34722 18.1399 5.36316 17.915C5.37938 17.6895 5.39892 17.4641 5.43249 17.2411C5.1636 17.2594 4.89406 17.2626 4.62488 17.2655C4.37423 17.2683 4.12329 17.271 3.87292 17.2861C3.84397 17.3042 3.82136 17.3295 3.80261 17.3583C3.76875 17.4107 3.74762 17.4756 3.72741 17.5321C3.5545 18.0211 3.42271 18.5348 3.29187 19.0439C3.23809 19.2528 3.18484 19.4616 3.12878 19.6669L2.08581 23.4862C2.05966 23.5838 2.02625 23.7196 1.98816 23.8759C1.84645 24.4587 1.63526 25.3284 1.44519 25.5751C1.33845 25.7139 1.14718 25.7821 0.977414 25.8075C0.708244 25.8478 0.314875 25.8119 0.0975315 25.6357C0.0654192 25.6097 0.0435595 25.5842 0.0281956 25.5575C0.0037455 25.5149 -0.0025438 25.468 0.0008518 25.4052C0.0318673 24.8376 0.343179 23.8242 0.588742 23.0263C0.663828 22.7825 0.733104 22.5588 0.786008 22.3739L2.06238 17.7831C2.34007 16.8006 2.60884 15.8154 2.86804 14.828C2.90332 14.6966 2.94438 14.5608 2.9862 14.4237C3.08093 14.1144 3.17831 13.7963 3.21472 13.4931C3.28243 12.9325 3.05616 11.718 2.98327 11.1005L2.40613 5.85148C2.3771 5.57653 2.34261 5.29998 2.30847 5.02433C2.28345 4.82074 2.25826 4.6172 2.23523 4.41398C2.2247 4.32211 2.21133 4.22888 2.19909 4.13566C2.18288 4.01123 2.16886 3.88597 2.16687 3.76262C2.16603 3.71774 2.16884 3.67786 2.17566 3.64152C2.19614 3.53416 2.25148 3.45618 2.34851 3.36418C2.475 3.24448 2.62314 3.14082 2.79675 3.10148C3.09666 3.03362 3.44104 3.05541 3.76941 3.07609C3.88962 3.08369 4.00785 3.0908 4.12097 3.09367C4.76575 3.11 5.4134 3.13008 6.05847 3.1298C6.05591 3.09496 6.05171 3.05595 6.04773 3.01457C6.02554 2.7929 5.99619 2.49826 6.14148 2.35344C6.32267 2.17332 6.9245 2.25988 7.17761 2.24992C7.18501 2.00828 7.15887 1.72979 7.13269 1.45695C7.10196 1.13701 7.07107 0.823985 7.09753 0.585858C7.10951 0.480224 7.14196 0.381827 7.20593 0.294842C7.3465 0.103943 7.56732 0.0380813 7.79577 0.00577998C7.87612 0.000988785 7.96435 -0.00221919 8.05261 0.00187373ZM12.1073 16.9521C11.8484 16.9596 11.5872 16.9603 11.329 16.9784L8.37976 17.0927C7.90874 17.1128 7.4295 17.1694 6.95886 17.1532C6.89794 18.2066 6.79066 19.2778 6.66394 20.3261C7.12543 20.2965 7.59006 20.2642 8.05261 20.2597C9.62742 20.2043 11.1998 20.0625 12.7753 20.0019C12.5567 18.9866 12.3557 17.9607 12.1073 16.9521ZM3.97253 10.6698C4.00353 10.9986 4.03226 11.328 4.06042 11.6571C4.08375 11.9305 4.10631 12.204 4.12878 12.4775C4.21756 13.5548 4.30608 14.6326 4.4364 15.706C5.22424 15.6901 6.01225 15.6405 6.80066 15.5907C7.11394 15.571 7.4278 15.5508 7.74109 15.5331C8.10119 15.5129 8.46175 15.4957 8.82214 15.4843C10.0981 15.4483 11.3731 15.3947 12.6473 15.3232C12.8004 15.315 12.9567 15.3133 13.1132 15.3124C13.2332 15.3118 13.3537 15.3115 13.4735 15.3075C13.6123 15.3029 13.7508 15.2941 13.8856 15.2753L14.3778 15.2402C14.3422 14.6631 14.2813 14.088 14.2128 13.5136C14.1806 13.2455 14.1467 12.9768 14.1132 12.7089C14.0691 12.3593 14.0256 12.0098 13.9852 11.6601L13.0946 3.99699C12.8495 3.97988 12.6044 3.96846 12.3593 3.95988C12.0907 3.95047 11.8215 3.94428 11.5526 3.9384L11.3466 3.93351L11.0428 3.92668C10.1386 3.89417 9.23379 3.87066 8.32898 3.85734C7.82204 3.85475 7.31553 3.85669 6.80945 3.85832C5.63313 3.86205 4.45805 3.86527 3.27917 3.81633L3.97253 10.6698ZM11.3026 5.58488C11.32 5.60021 11.334 5.61655 11.3456 5.63371C11.3658 5.66342 11.3796 5.69571 11.3895 5.73039C11.396 5.75283 11.401 5.77641 11.4061 5.8007C11.4414 5.97238 11.4539 6.15192 11.4667 6.33C11.4738 6.42606 11.4809 6.522 11.4911 6.61613C11.5002 6.69922 11.5102 6.78276 11.5204 6.86613L11.5438 7.05168C11.5859 7.39015 11.6277 7.72988 11.6454 8.06828C11.7114 9.33403 11.525 10.5723 10.6171 11.5439C10.0503 12.1502 9.32256 12.5118 8.51745 12.7079C8.36095 12.746 8.19596 12.797 8.03405 12.8036L8.0028 12.8046C7.96906 12.8052 7.93499 12.8045 7.90124 12.8027L7.86804 12.915L7.85046 12.9775C7.73835 13.373 7.55707 14.0134 7.33972 14.2001C7.31952 14.2175 7.29611 14.2334 7.27136 14.246C7.24841 14.2577 7.22401 14.2666 7.19909 14.2714C7.18458 14.2742 7.16925 14.2756 7.15417 14.2753C7.14057 14.275 7.12676 14.2728 7.11316 14.2695C7.03718 14.2507 6.99862 14.2128 6.96277 14.1474C6.81681 13.8789 7.19402 13.0038 7.36023 12.6191L7.40515 12.5126C6.80084 11.7011 6.53825 10.7452 6.69616 9.75285C6.84328 8.82743 7.35951 8.08685 8.14245 7.54387C8.47423 7.31378 8.82579 7.11504 9.17663 6.91691C9.6321 6.65955 10.087 6.40312 10.4969 6.07805C10.537 6.04628 10.5827 6.00561 10.6327 5.96183C10.8224 5.79611 11.0702 5.57991 11.2684 5.58098C11.2798 5.58104 11.2915 5.58364 11.3026 5.58488Z" fill="#1C1B1A" />
</svg>

